<?xml version="1.0" encoding="UTF-8"?>
<svg id="Layer_2" data-name="Layer 2" xmlns="http://www.w3.org/2000/svg" viewBox="0 0 1170 600">
  <defs>
    <style>
      .cls-1 {
        fill: #008101;
      }

      .cls-2 {
        fill: #00befe;
      }

      .cls-3 {
        fill: #c00;
      }

      .cls-4 {
        fill: #120a8f;
      }
    </style>
  </defs>
  <g id="Layer_2-2" data-name="Layer 2">
    <g>
      <path class="cls-3" d="M224.31,255.04c3.88,0,7.03,3.15,7.03,7.03h0v24.34c0,3.88-3.15,7.03-7.03,7.03h-30.24c0,37.17-2.52,112.74,20.39,179.57H65.85c23.37-68.17,20.42-145.76,20.42-179.57h-30.28c-3.88,0-7.03-3.15-7.03-7.03h0v-24.34c0-3.88,3.15-7.03,7.03-7.03h168.32ZM38.84,134.87l40.52,111.41h121.56l40.51-111.41c3.34-9.17-3.46-18.87-13.22-18.87h-59.96v-35.41h25.28c3.88,0,7.03-3.15,7.03-7.03v-26.23c0-3.88-3.15-7.03-7.03-7.03h-33.24V7.03c.02-3.88-3.13-7.03-7.01-7.03h-26.23c-3.89,0-7.03,3.15-7.03,7.03v33.26h-33.28c-3.88,0-7.03,3.15-7.03,7.03v26.23c0,3.88,3.15,7.03,7.03,7.03h25.29v35.41h-59.96c-9.76,0-16.55,9.7-13.22,18.87h0ZM251.1,521.68v-32.89c0-3.88-3.15-7.03-7.03-7.03H36.23c-3.88,0-7.03,3.15-7.03,7.03v32.89l-25.95,16.6c-2.03,1.29-3.25,3.53-3.25,5.93v48.76c0,3.88,3.15,7.03,7.03,7.03h266.23c3.88,0,7.03-3.15,7.03-7.03v-48.76c0-2.4-1.22-4.63-3.24-5.92l-25.96-16.6h0Z"/>
      <path class="cls-1" d="M324.31,255.04c3.88,0,7.03,3.15,7.03,7.03h0v24.34c0,3.88-3.15,7.03-7.03,7.03h-30.24c0,37.17-2.52,112.74,20.39,179.57h-148.61c23.37-68.17,20.42-145.76,20.42-179.57h-30.28c-3.88,0-7.03-3.15-7.03-7.03h0v-24.34c0-3.88,3.15-7.03,7.03-7.03h168.32,0ZM138.84,134.87l40.52,111.41h121.56l40.51-111.41c3.34-9.17-3.46-18.87-13.22-18.87h-59.96v-35.41h25.28c3.88,0,7.03-3.15,7.03-7.03v-26.23c0-3.88-3.15-7.03-7.03-7.03h-33.24V7.03c0-3.88-3.15-7.03-7.03-7.03h-26.23c-3.88,0-7.03,3.15-7.03,7.03v33.26h-33.28c-3.88,0-7.03,3.15-7.03,7.03v26.23c0,3.88,3.15,7.03,7.03,7.03h25.29v35.41h-59.96c-9.76,0-16.55,9.7-13.22,18.87h0ZM351.09,521.68v-32.89c0-3.88-3.15-7.03-7.03-7.03h-207.84c-3.88,0-7.03,3.15-7.03,7.03v32.89l-25.95,16.6c-2.02,1.29-3.24,3.53-3.24,5.92v48.76c0,3.88,3.15,7.03,7.03,7.03h266.23c3.88,0,7.03-3.15,7.03-7.03v-48.76c0-2.4-1.22-4.63-3.24-5.92l-25.96-16.6h0Z"/>
      <path class="cls-2" d="M426.47,255.04c3.88,0,7.03,3.15,7.03,7.03h0v24.34c0,3.88-3.15,7.03-7.03,7.03h-30.24c0,37.17-2.52,112.74,20.39,179.57h-148.61c23.37-68.17,20.42-145.76,20.42-179.57h-30.28c-3.88,0-7.03-3.15-7.03-7.03h0v-24.34c0-3.88,3.15-7.03,7.03-7.03h168.32,0ZM241,134.87l40.52,111.41h121.56l40.51-111.41c3.34-9.17-3.46-18.87-13.22-18.87h-59.96v-35.41h25.28c3.88,0,7.03-3.15,7.03-7.03v-26.23c0-3.88-3.15-7.03-7.03-7.03h-33.24V7.03c0-3.88-3.15-7.03-7.03-7.03h-26.23c-3.88,0-7.03,3.15-7.03,7.03v33.26h-33.28c-3.88,0-7.03,3.15-7.03,7.03v26.23c0,3.88,3.15,7.03,7.03,7.03h25.29v35.41h-59.96c-9.76,0-16.55,9.7-13.22,18.87h0ZM453.25,521.68v-32.89c0-3.88-3.15-7.03-7.03-7.03h-207.84c-3.88,0-7.03,3.15-7.03,7.03v32.89l-25.95,16.6c-2.02,1.29-3.24,3.53-3.24,5.92v48.76c0,3.88,3.15,7.03,7.03,7.03h266.23c3.88,0,7.03-3.15,7.03-7.03v-48.76c0-2.4-1.22-4.63-3.24-5.92l-25.96-16.6h0Z"/>
    </g>
    <g>
      <g>
        <path class="cls-4" d="M376.8,300.58c2.36-6.7,3.59-15.88,3.67-27.58.1-11.69.44-18.85,1.06-21.46,1.13-4.78,3.05-8.32,5.77-10.63s6.8-3.46,12.25-3.46h5.84v-42.77h-17.59c-9.93,0-18.75.92-26.49,2.75-5.84,1.39-10.43,3.48-13.82,6.26-4.52,3.65-8.06,8.91-10.63,15.78-2.56,6.87-3.84,18-3.84,33.39,0,1.99.05,4.01.13,6v4.44c0,10.25-.87,17.54-2.61,21.84s-4.27,7.49-7.63,9.58c-3.35,2.09-8.38,3.13-15.06,3.13v44.73c6.51.17,11.5,1.22,14.93,3.13,3.43,1.92,6.06,5,7.89,9.26,1.83,4.25,2.75,11.43,2.75,21.51,0,1.99-.05,3.95-.13,5.87-.17,3.13-.26,6.26-.26,9.39,0,14.17,1.52,24.79,4.56,31.88,3.04,7.08,8.13,12.48,15.26,16.17,7.14,3.69,19.17,5.54,36.13,5.54h16.43v-42.25c-8.53,0-14.19-.73-17.02-2.22-2.82-1.47-4.84-3.99-6.06-7.56s-1.83-11.21-1.83-22.95c0-13.04-1-22.54-3-28.5-1.99-5.95-4.41-10.39-7.23-13.3-2.82-2.91-7.15-5.72-12.97-8.41,5.6-2.43,9.61-4.82,12.07-7.17,3.23-3.13,5.73-7.26,7.47-12.39h-.04Z"/>
        <rect class="cls-4" x="426.38" y="250.62" width="53.08" height="138.5"/>
        <rect class="cls-4" x="426.38" y="197.94" width="53.08" height="36.13"/>
        <rect class="cls-4" x="507.89" y="297.58" width="31.02" height="21.28"/>
        <path class="cls-4" d="M507.89,403.94c0,5.37-.69,8.97-2.05,10.77-1.37,1.8-3.38,2.7-6.01,2.7-1.17,0-3-.25-5.48-.76l-4.64,22.5c8.86,1.78,16.29,2.67,22.28,2.67,7.25,0,12.82-1.29,16.73-3.88,3.9-2.58,6.58-5.95,8.02-10.11s2.16-11.23,2.16-21.21v-78.31h-31.02v75.64h.01Z"/>
        <path class="cls-4" d="M705.27,367.93c6.35-7.7,10.92-16.81,13.69-27.32l-50.47-5.74h0c-2.35,7.41-5.89,12.88-10.63,16.44s-10.58,5.35-17.54,5.35c-8.34,0-15.21-2.95-20.61-8.86-5.39-5.9-8.09-14.53-8.09-25.9,0-12.76,2.72-22.29,8.15-28.57,5.43-6.3,12.54-9.44,21.32-9.44,6.96,0,12.5,1.51,16.62,4.5,4.12,3,6.98,7.45,8.54,13.37l49.94-6.65c-4.78-15.57-13.11-27.39-24.98-35.47-11.88-8.09-29.1-12.13-51.71-12.13-16.17,0-29.44,2.13-39.78,6.38-6.52,2.69-12.87,6.8-19.05,12.32-6.18,5.51-11.04,11.74-14.61,18.69-4.87,9.47-7.3,21.94-7.3,35.57s1.99,24.58,6,32.84c3.99,8.26,9.52,15.44,16.56,21.56,7.04,6.13,15.45,10.56,25.24,13.3,9.79,2.73,21.5,4.1,36.71,4.1s27.76-2.13,37.62-6.4c9.86-4.26,17.97-10.24,24.32-17.93h.06Z"/>
        <path class="cls-4" d="M797.22,441.81v-66.13c5.31,5.48,11.33,9.6,18.07,12.39,6.74,2.78,14.19,4.17,22.36,4.17,16.86,0,30.81-6.06,41.86-18.18,11.04-12.13,16.56-29.72,16.56-52.75,0-20.87-5.06-38.38-15.19-52.55-10.13-14.17-24.45-21.25-42.97-21.25-9.39,0-17.96,2.05-25.69,6.14-5.74,3.05-12.04,8.87-18.91,17.47v-20.48h-49.69v191.19h53.59v-.02ZM803.61,294.45c4.52-5.31,10.16-7.96,16.96-7.96,6.26,0,11.56,2.63,15.91,7.89s6.51,13.5,6.51,24.72c0,12.17-2.09,20.8-6.26,25.88-4.17,5.09-9.35,7.63-15.51,7.63-7.04,0-12.88-2.65-17.47-7.96-4.61-5.31-6.91-13.44-6.91-24.39h0c0-11.91,2.26-20.51,6.78-25.82h-.01Z"/>
        <path class="cls-4" d="M932.75,381.42c10.73,7.21,28.76,10.83,54.06,10.83,17.92,0,32.06-2.24,42.45-6.71,10.39-4.47,18-10.5,22.82-18.04,4.82-7.56,7.23-15.42,7.23-23.32s-2.28-15.16-6.85-21.76c-4.56-6.59-11.15-11.68-19.76-15.23-8.6-3.55-21.74-6.34-39.38-8.33-11.65-1.39-19.22-2.95-22.7-4.68-3.48-1.73-5.21-4.3-5.21-7.68,0-3.04,1.37-5.62,4.11-7.74,2.75-2.13,7.19-3.19,13.11-3.19s10.96,1.39,15.13,4.17c3.04,2.09,5.21,5.35,6.51,9.79l50.34-4.95c-3.49-9.04-7.85-16.21-13.11-21.51-5.26-5.31-11.83-9.22-19.69-11.74-7.86-2.52-20.06-3.79-36.57-3.79-15.65,0-28.13,1.63-37.43,4.89-9.3,3.25-16.6,8.18-21.91,14.78-5.31,6.61-7.96,14.46-7.96,23.59,0,8.33,2.45,15.76,7.36,22.28s10.96,11.14,18.13,13.88c7.18,2.75,19.97,5.72,38.4,8.93,12.35,2.17,19.96,4.01,22.82,5.47,4.01,2.08,6,5.04,6,8.86,0,3.38-1.52,6.21-4.56,8.46-3.91,3.04-9.43,4.55-16.56,4.55-6.51,0-11.74-1.35-15.65-4.05-3.92-2.7-6.96-7.18-9.13-13.44l-52.69,4.95h-.02c3.04,13.3,9.94,23.56,20.67,30.77l.02-.03h.02Z"/>
        <path class="cls-4" d="M1154.09,294.71c-3.35-2.08-5.89-5.28-7.63-9.58-1.73-4.31-2.61-11.58-2.61-21.84v-4.44c.1-1.99.13-4.01.13-6,0-15.39-1.28-26.52-3.84-33.39-2.56-6.87-6.1-12.13-10.63-15.78-3.39-2.78-8-4.87-13.82-6.26-7.74-1.83-16.57-2.75-26.47-2.75h-17.59v42.77h5.84c5.45,0,9.53,1.15,12.25,3.46s4.65,5.85,5.77,10.63c.61,2.62.95,9.77,1.04,21.46.1,11.69,1.31,20.89,3.67,27.58,1.74,5.12,4.23,9.26,7.47,12.39,2.44,2.34,6.47,4.74,12.07,7.17-5.82,2.7-10.15,5.5-12.97,8.41-2.82,2.92-5.24,7.34-7.23,13.3-1.99,5.95-3,15.46-3,28.5,0,11.74-.61,19.38-1.83,22.95-1.22,3.56-3.24,6.08-6.06,7.56-2.82,1.47-8.49,2.22-17.02,2.22v42.25h16.43c16.96,0,29-1.85,36.13-5.54s12.22-9.09,15.26-16.17c3.04-7.08,4.56-17.71,4.56-31.88,0-3.13-.09-6.26-.26-9.39-.1-1.92-.13-3.87-.13-5.87,0-10.09.92-17.26,2.75-21.51,1.82-4.26,4.46-7.34,7.89-9.26s8.41-2.96,14.93-3.13v-44.73c-6.7,0-11.71-1.04-15.06-3.13h-.04Z"/>
      </g>
      <g>
        <path class="cls-4" d="M307.85,136.03h40.34v10.61h-13.54v32.34h-13.27v-32.34h-13.54v-10.61Z"/>
        <path class="cls-4" d="M347.87,163.51c0-4.75,1.6-8.66,4.8-11.73s7.53-4.61,12.98-4.61c6.23,0,10.94,1.81,14.12,5.42,2.56,2.91,3.84,6.49,3.84,10.75,0,4.79-1.59,8.71-4.76,11.76s-7.56,4.58-13.17,4.58c-5,0-9.04-1.27-12.13-3.81-3.79-3.14-5.68-7.27-5.68-12.36ZM359.83,163.48c0,2.77.56,4.82,1.68,6.15s2.53,1.99,4.23,1.99,3.13-.65,4.23-1.96,1.66-3.41,1.66-6.3c0-2.7-.56-4.7-1.67-6.02s-2.49-1.98-4.13-1.98c-1.74,0-3.17.67-4.31,2.01s-1.7,3.37-1.7,6.11Z"/>
        <path class="cls-4" d="M389.47,147.86h11.16v5.1c1.07-2.21,2.18-3.73,3.33-4.56s2.55-1.25,4.23-1.25,3.68.55,5.77,1.64l-3.69,8.5c-1.41-.59-2.52-.88-3.34-.88-1.56,0-2.77.64-3.63,1.93-1.23,1.82-1.85,5.21-1.85,10.2v10.43h-11.98v-31.11Z"/>
        <path class="cls-4" d="M418.98,147.86h11.1v5.07c1.66-2.07,3.34-3.55,5.04-4.44s3.77-1.33,6.21-1.33c3.3,0,5.88.98,7.75,2.94s2.8,5,2.8,9.1v19.78h-11.98v-17.11c0-1.95-.36-3.33-1.08-4.15s-1.74-1.22-3.05-1.22c-1.45,0-2.62.55-3.52,1.64s-1.35,3.06-1.35,5.89v14.94h-11.92v-31.11Z"/>
        <path class="cls-4" d="M493.54,166.38h-23.91c.21,1.91.73,3.34,1.55,4.28,1.15,1.35,2.66,2.02,4.51,2.02,1.17,0,2.29-.29,3.34-.88.64-.37,1.34-1.03,2.08-1.96l11.75,1.08c-1.8,3.12-3.96,5.37-6.5,6.72s-6.18,2.04-10.93,2.04c-4.12,0-7.36-.58-9.73-1.74s-4.32-3.01-5.87-5.54-2.33-5.5-2.33-8.92c0-4.86,1.56-8.8,4.67-11.81s7.42-4.51,12.91-4.51c4.45,0,7.97.67,10.55,2.02s4.54,3.3,5.89,5.86,2.02,5.89,2.02,9.99v1.35ZM481.41,160.67c-.23-2.3-.85-3.96-1.86-4.95s-2.33-1.49-3.97-1.49c-1.89,0-3.41.75-4.54,2.26-.72.94-1.18,2.33-1.38,4.19h11.75Z"/>
        <path class="cls-4" d="M499.46,136.03h11.92v8.12h-11.92v-8.12ZM499.46,147.86h11.92v31.11h-11.92v-31.11Z"/>
        <path class="cls-4" d="M519.11,147.86h11.16v5.1c1.07-2.21,2.18-3.73,3.33-4.56s2.55-1.25,4.23-1.25,3.68.55,5.77,1.64l-3.69,8.5c-1.41-.59-2.52-.88-3.34-.88-1.56,0-2.77.64-3.63,1.93-1.23,1.82-1.85,5.21-1.85,10.2v10.43h-11.98v-31.11Z"/>
        <path class="cls-4" d="M545.13,163.51c0-4.75,1.6-8.66,4.8-11.73s7.53-4.61,12.98-4.61c6.23,0,10.94,1.81,14.12,5.42,2.56,2.91,3.84,6.49,3.84,10.75,0,4.79-1.59,8.71-4.76,11.76s-7.56,4.58-13.17,4.58c-5,0-9.04-1.27-12.13-3.81-3.79-3.14-5.68-7.27-5.68-12.36ZM557.08,163.48c0,2.77.56,4.82,1.68,6.15s2.53,1.99,4.23,1.99,3.13-.65,4.23-1.96,1.66-3.41,1.66-6.3c0-2.7-.56-4.7-1.67-6.02s-2.49-1.98-4.13-1.98c-1.74,0-3.17.67-4.31,2.01s-1.7,3.37-1.7,6.11Z"/>
        <path class="cls-4" d="M639.38,136.03v42.95h-11.16v-4.6c-1.56,1.95-2.99,3.27-4.28,3.96-1.72.9-3.63,1.35-5.74,1.35-4.24,0-7.48-1.61-9.71-4.83s-3.35-7.14-3.35-11.75c0-5.16,1.24-9.1,3.71-11.84s5.61-4.1,9.42-4.1c1.86,0,3.54.31,5.05.94s2.86,1.56,4.03,2.81v-14.88h12.04ZM627.42,163.33c0-2.44-.52-4.26-1.55-5.46s-2.34-1.8-3.93-1.8c-1.39,0-2.55.58-3.49,1.73s-1.41,3.09-1.41,5.8c0,2.54.48,4.4,1.45,5.58s2.16,1.77,3.59,1.77c1.52,0,2.79-.6,3.81-1.79s1.52-3.13,1.52-5.83Z"/>
        <path class="cls-4" d="M681.18,166.38h-23.91c.21,1.91.73,3.34,1.55,4.28,1.15,1.35,2.66,2.02,4.51,2.02,1.17,0,2.29-.29,3.34-.88.64-.37,1.34-1.03,2.08-1.96l11.75,1.08c-1.8,3.12-3.96,5.37-6.5,6.72s-6.18,2.04-10.93,2.04c-4.12,0-7.36-.58-9.73-1.74s-4.32-3.01-5.87-5.54-2.33-5.5-2.33-8.92c0-4.86,1.56-8.8,4.67-11.81s7.42-4.51,12.91-4.51c4.45,0,7.97.67,10.55,2.02s4.54,3.3,5.89,5.86,2.02,5.89,2.02,9.99v1.35ZM669.05,160.67c-.23-2.3-.85-3.96-1.86-4.95s-2.33-1.49-3.97-1.49c-1.89,0-3.41.75-4.54,2.26-.72.94-1.18,2.33-1.38,4.19h11.75Z"/>
        <path class="cls-4" d="M704.53,136.03h14.62l7.6,13.21,7.4-13.21h14.47l-13.37,20.8,14.63,22.15h-14.91l-8.48-13.8-8.48,13.8h-14.82l14.82-22.38-13.47-20.57Z"/>
        <path class="cls-4" d="M764.21,157.94l-11.4-1.2c.43-1.99,1.05-3.56,1.86-4.7s1.98-2.13,3.5-2.97c1.09-.61,2.6-1.07,4.51-1.41s3.98-.5,6.21-.5c3.57,0,6.45.2,8.61.6s3.97,1.24,5.42,2.5c1.02.88,1.82,2.12,2.4,3.74s.88,3.15.88,4.61v13.74c0,1.46.09,2.61.28,3.44s.59,1.89,1.22,3.18h-11.19c-.45-.8-.74-1.41-.88-1.83s-.27-1.08-.41-1.98c-1.56,1.5-3.12,2.58-4.66,3.22-2.11.86-4.56,1.29-7.35,1.29-3.71,0-6.53-.86-8.45-2.58s-2.89-3.84-2.89-6.36c0-2.36.69-4.31,2.08-5.83s3.95-2.66,7.68-3.4c4.47-.9,7.37-1.53,8.7-1.89s2.73-.83,4.22-1.42c0-1.46-.3-2.49-.91-3.08s-1.67-.88-3.19-.88c-1.95,0-3.42.31-4.39.94-.76.49-1.38,1.41-1.85,2.75ZM774.55,164.21c-1.64.59-3.35,1.1-5.13,1.55-2.42.64-3.96,1.28-4.6,1.9-.66.64-1,1.38-1,2.2,0,.94.33,1.7.98,2.3s1.62.89,2.89.89,2.56-.32,3.71-.97,1.95-1.43,2.43-2.36.72-2.13.72-3.62v-1.9Z"/>
        <path class="cls-4" d="M826.12,136.03v42.95h-11.16v-4.6c-1.56,1.95-2.99,3.27-4.28,3.96-1.72.9-3.63,1.35-5.74,1.35-4.24,0-7.48-1.61-9.71-4.83s-3.35-7.14-3.35-11.75c0-5.16,1.24-9.1,3.71-11.84s5.61-4.1,9.42-4.1c1.86,0,3.54.31,5.05.94s2.86,1.56,4.03,2.81v-14.88h12.04ZM814.16,163.33c0-2.44-.52-4.26-1.55-5.46s-2.34-1.8-3.93-1.8c-1.39,0-2.55.58-3.49,1.73s-1.41,3.09-1.41,5.8c0,2.54.48,4.4,1.45,5.58s2.16,1.77,3.59,1.77c1.52,0,2.79-.6,3.81-1.79s1.52-3.13,1.52-5.83Z"/>
        <path class="cls-4" d="M833.5,147.86h11.16v5.1c1.07-2.21,2.18-3.73,3.33-4.56s2.55-1.25,4.23-1.25,3.68.55,5.77,1.64l-3.69,8.5c-1.41-.59-2.52-.88-3.34-.88-1.56,0-2.77.64-3.63,1.93-1.23,1.82-1.85,5.21-1.85,10.2v10.43h-11.98v-31.11Z"/>
        <path class="cls-4" d="M895.52,166.38h-23.91c.21,1.91.73,3.34,1.55,4.28,1.15,1.35,2.66,2.02,4.51,2.02,1.17,0,2.29-.29,3.34-.88.64-.37,1.34-1.03,2.08-1.96l11.75,1.08c-1.8,3.12-3.96,5.37-6.5,6.72s-6.18,2.04-10.93,2.04c-4.12,0-7.36-.58-9.73-1.74s-4.32-3.01-5.87-5.54-2.33-5.5-2.33-8.92c0-4.86,1.56-8.8,4.67-11.81s7.42-4.51,12.91-4.51c4.45,0,7.97.67,10.55,2.02s4.54,3.3,5.89,5.86,2.02,5.89,2.02,9.99v1.35ZM883.39,160.67c-.23-2.3-.85-3.96-1.86-4.95s-2.33-1.49-3.97-1.49c-1.89,0-3.41.75-4.54,2.26-.72.94-1.18,2.33-1.38,4.19h11.75Z"/>
        <path class="cls-4" d="M899.65,147.86h28.86v6.97l-15.7,16h16.67v8.14h-31v-7.73l14.92-15.23h-13.74v-8.14Z"/>
        <path class="cls-4" d="M987.13,136.03v42.95h-11.16v-4.6c-1.56,1.95-2.99,3.27-4.28,3.96-1.72.9-3.63,1.35-5.74,1.35-4.24,0-7.48-1.61-9.71-4.83s-3.35-7.14-3.35-11.75c0-5.16,1.24-9.1,3.71-11.84s5.61-4.1,9.42-4.1c1.86,0,3.54.31,5.05.94s2.86,1.56,4.03,2.81v-14.88h12.04ZM975.18,163.33c0-2.44-.52-4.26-1.55-5.46s-2.34-1.8-3.93-1.8c-1.39,0-2.55.58-3.49,1.73s-1.41,3.09-1.41,5.8c0,2.54.48,4.4,1.45,5.58s2.16,1.77,3.59,1.77c1.52,0,2.79-.6,3.81-1.79s1.52-3.13,1.52-5.83Z"/>
        <path class="cls-4" d="M992.93,163.51c0-4.75,1.6-8.66,4.8-11.73s7.53-4.61,12.98-4.61c6.23,0,10.94,1.81,14.12,5.42,2.56,2.91,3.84,6.49,3.84,10.75,0,4.79-1.59,8.71-4.76,11.76s-7.56,4.58-13.17,4.58c-5,0-9.04-1.27-12.13-3.81-3.79-3.14-5.68-7.27-5.68-12.36ZM1004.88,163.48c0,2.77.56,4.82,1.68,6.15s2.53,1.99,4.23,1.99,3.13-.65,4.23-1.96,1.66-3.41,1.66-6.3c0-2.7-.56-4.7-1.67-6.02s-2.49-1.98-4.13-1.98c-1.74,0-3.17.67-4.31,2.01s-1.7,3.37-1.7,6.11Z"/>
      </g>
      <g>
        <path class="cls-4" d="M588.18,486.42l11.63,3.52c-.78,3.26-2.01,5.99-3.69,8.17s-3.76,3.84-6.25,4.95-5.66,1.67-9.51,1.67c-4.67,0-8.48-.68-11.44-2.04-2.96-1.36-5.51-3.74-7.66-7.16-2.15-3.42-3.22-7.79-3.22-13.12,0-7.1,1.89-12.56,5.67-16.38,3.78-3.82,9.12-5.72,16.04-5.72,5.41,0,9.66,1.09,12.76,3.28s5.39,5.55,6.9,10.08l-11.72,2.61c-.41-1.31-.84-2.27-1.29-2.87-.74-1.02-1.65-1.8-2.72-2.34s-2.28-.82-3.6-.82c-3.01,0-5.31,1.21-6.91,3.63-1.21,1.79-1.82,4.61-1.82,8.46,0,4.76.72,8.02,2.17,9.79,1.45,1.77,3.48,2.65,6.09,2.65s4.46-.71,5.76-2.14,2.24-3.5,2.83-6.21Z"/>
        <path class="cls-4" d="M605.46,461.05h11.92v15.82c1.62-1.68,3.23-2.88,4.83-3.6s3.5-1.08,5.68-1.08c3.24,0,5.8.99,7.66,2.96s2.8,5,2.8,9.08v19.78h-11.98v-17.11c0-1.95-.36-3.33-1.08-4.15s-1.74-1.22-3.05-1.22c-1.45,0-2.62.55-3.52,1.64s-1.35,3.06-1.35,5.89v14.94h-11.92v-42.95Z"/>
        <path class="cls-4" d="M680.02,491.4h-23.91c.21,1.91.73,3.34,1.55,4.28,1.15,1.35,2.66,2.02,4.51,2.02,1.17,0,2.29-.29,3.34-.88.64-.37,1.34-1.03,2.08-1.96l11.75,1.08c-1.8,3.12-3.96,5.37-6.5,6.72s-6.18,2.04-10.93,2.04c-4.12,0-7.36-.58-9.73-1.74s-4.32-3.01-5.87-5.54-2.33-5.5-2.33-8.92c0-4.86,1.56-8.8,4.67-11.81s7.42-4.51,12.91-4.51c4.45,0,7.97.67,10.55,2.02s4.54,3.3,5.89,5.86,2.02,5.89,2.02,9.99v1.35ZM667.9,485.69c-.23-2.3-.85-3.96-1.86-4.95s-2.33-1.49-3.97-1.49c-1.89,0-3.41.75-4.54,2.26-.72.94-1.18,2.33-1.38,4.19h11.75Z"/>
        <path class="cls-4" d="M683.39,495.36l11.84-1.11c.49,1.41,1.17,2.41,2.05,3.02s2.05.91,3.52.91c1.6,0,2.84-.34,3.72-1.02.68-.51,1.03-1.14,1.03-1.9,0-.86-.45-1.52-1.35-1.99-.64-.33-2.35-.74-5.13-1.23-4.14-.72-7.02-1.39-8.63-2s-2.97-1.65-4.07-3.12c-1.1-1.46-1.66-3.13-1.66-5,0-2.05.6-3.81,1.79-5.3,1.19-1.48,2.83-2.59,4.92-3.32s4.89-1.1,8.41-1.1c3.71,0,6.45.28,8.22.85s3.24,1.45,4.42,2.64,2.16,2.8,2.94,4.83l-11.31,1.11c-.29-1-.78-1.73-1.46-2.2-.94-.62-2.07-.94-3.4-.94s-2.33.24-2.94.72-.92,1.06-.92,1.74c0,.76.39,1.34,1.17,1.73.78.39,2.48.74,5.1,1.05,3.96.45,6.91,1.07,8.85,1.87,1.93.8,3.41,1.94,4.44,3.42,1.03,1.48,1.54,3.11,1.54,4.89s-.54,3.54-1.63,5.24-2.79,3.05-5.13,4.05c-2.33,1-5.51,1.51-9.54,1.51-5.68,0-9.73-.81-12.14-2.43s-3.96-3.93-4.64-6.91Z"/>
        <path class="cls-4" d="M720.04,495.36l11.84-1.11c.49,1.41,1.17,2.41,2.05,3.02s2.05.91,3.52.91c1.6,0,2.84-.34,3.72-1.02.68-.51,1.03-1.14,1.03-1.9,0-.86-.45-1.52-1.35-1.99-.64-.33-2.35-.74-5.13-1.23-4.14-.72-7.02-1.39-8.63-2s-2.97-1.65-4.07-3.12c-1.1-1.46-1.66-3.13-1.66-5,0-2.05.6-3.81,1.79-5.3,1.19-1.48,2.83-2.59,4.92-3.32s4.89-1.1,8.41-1.1c3.71,0,6.45.28,8.22.85s3.24,1.45,4.42,2.64,2.16,2.8,2.94,4.83l-11.31,1.11c-.29-1-.78-1.73-1.46-2.2-.94-.62-2.07-.94-3.4-.94s-2.33.24-2.94.72-.92,1.06-.92,1.74c0,.76.39,1.34,1.17,1.73.78.39,2.48.74,5.1,1.05,3.96.45,6.91,1.07,8.85,1.87,1.93.8,3.41,1.94,4.44,3.42,1.03,1.48,1.54,3.11,1.54,4.89s-.54,3.54-1.63,5.24-2.79,3.05-5.13,4.05c-2.33,1-5.51,1.51-9.54,1.51-5.68,0-9.73-.81-12.14-2.43s-3.96-3.93-4.64-6.91Z"/>
        <path class="cls-4" d="M776.59,461.05h40.34v10.61h-13.54v32.34h-13.27v-32.34h-13.54v-10.61Z"/>
        <path class="cls-4" d="M816.61,488.53c0-4.75,1.6-8.66,4.8-11.73s7.53-4.61,12.98-4.61c6.23,0,10.94,1.81,14.12,5.42,2.56,2.91,3.84,6.49,3.84,10.75,0,4.79-1.59,8.71-4.76,11.76s-7.56,4.58-13.17,4.58c-5,0-9.04-1.27-12.13-3.81-3.79-3.14-5.68-7.27-5.68-12.36ZM828.56,488.5c0,2.77.56,4.82,1.68,6.15s2.53,1.99,4.23,1.99,3.13-.65,4.23-1.96,1.66-3.41,1.66-6.3c0-2.7-.56-4.7-1.67-6.02s-2.49-1.98-4.13-1.98c-1.74,0-3.17.67-4.31,2.01s-1.7,3.37-1.7,6.11Z"/>
        <path class="cls-4" d="M890.87,504h-11.13v-5.04c-1.66,2.07-3.33,3.54-5.02,4.42s-3.76,1.32-6.23,1.32c-3.28,0-5.85-.98-7.72-2.94s-2.8-4.99-2.8-9.07v-19.8h11.98v17.11c0,1.95.36,3.34,1.08,4.16s1.74,1.23,3.05,1.23c1.43,0,2.59-.55,3.5-1.64s1.36-3.06,1.36-5.89v-14.97h11.92v31.11Z"/>
        <path class="cls-4" d="M898.23,472.89h11.16v5.1c1.07-2.21,2.18-3.73,3.33-4.56s2.55-1.25,4.23-1.25,3.68.55,5.77,1.64l-3.69,8.5c-1.41-.59-2.52-.88-3.34-.88-1.56,0-2.77.64-3.63,1.93-1.23,1.82-1.85,5.21-1.85,10.2v10.43h-11.98v-31.11Z"/>
        <path class="cls-4" d="M927.73,472.89h11.1v5.07c1.66-2.07,3.34-3.55,5.04-4.44s3.77-1.33,6.21-1.33c3.3,0,5.88.98,7.75,2.94s2.8,5,2.8,9.1v19.78h-11.98v-17.11c0-1.95-.36-3.33-1.08-4.15s-1.74-1.22-3.05-1.22c-1.45,0-2.62.55-3.52,1.64s-1.35,3.06-1.35,5.89v14.94h-11.92v-31.11Z"/>
        <path class="cls-4" d="M978.62,482.97l-11.4-1.2c.43-1.99,1.05-3.56,1.86-4.7s1.98-2.13,3.5-2.97c1.09-.61,2.6-1.07,4.51-1.41s3.98-.5,6.21-.5c3.57,0,6.45.2,8.61.6s3.97,1.24,5.42,2.5c1.02.88,1.82,2.12,2.4,3.74s.88,3.15.88,4.61v13.74c0,1.46.09,2.61.28,3.44s.59,1.89,1.22,3.18h-11.19c-.45-.8-.74-1.41-.88-1.83s-.27-1.08-.41-1.98c-1.56,1.5-3.12,2.58-4.66,3.22-2.11.86-4.56,1.29-7.35,1.29-3.71,0-6.53-.86-8.45-2.58s-2.89-3.84-2.89-6.36c0-2.36.69-4.31,2.08-5.83s3.95-2.66,7.68-3.4c4.47-.9,7.37-1.53,8.7-1.89s2.73-.83,4.22-1.42c0-1.46-.3-2.49-.91-3.08s-1.67-.88-3.19-.88c-1.95,0-3.42.31-4.39.94-.76.49-1.38,1.41-1.85,2.75ZM988.96,489.24c-1.64.59-3.35,1.1-5.13,1.55-2.42.64-3.96,1.28-4.6,1.9-.66.64-1,1.38-1,2.2,0,.94.33,1.7.98,2.3s1.62.89,2.89.89,2.56-.32,3.71-.97,1.95-1.43,2.43-2.36.72-2.13.72-3.62v-1.9Z"/>
        <path class="cls-4" d="M1007.86,472.89h11.13v4.54c1.6-1.89,3.22-3.24,4.86-4.04,1.63-.8,3.6-1.2,5.91-1.2,2.48,0,4.45.44,5.9,1.32s2.63,2.19,3.55,3.93c1.87-2.03,3.58-3.41,5.12-4.15s3.44-1.1,5.71-1.1c3.33,0,5.94.99,7.81,2.97s2.81,5.08,2.81,9.3v19.54h-11.95v-17.72c0-1.41-.27-2.45-.82-3.13-.8-1.07-1.79-1.61-2.98-1.61-1.4,0-2.53.51-3.39,1.52s-1.28,2.65-1.28,4.89v16.05h-11.95v-17.14c0-1.37-.08-2.29-.24-2.78-.25-.78-.7-1.41-1.32-1.89-.63-.48-1.36-.72-2.2-.72-1.37,0-2.5.52-3.38,1.55-.88,1.04-1.32,2.73-1.32,5.1v15.88h-11.95v-31.11Z"/>
        <path class="cls-4" d="M1102.31,491.4h-23.91c.21,1.91.73,3.34,1.55,4.28,1.15,1.35,2.66,2.02,4.51,2.02,1.17,0,2.29-.29,3.34-.88.64-.37,1.34-1.03,2.08-1.96l11.75,1.08c-1.8,3.12-3.96,5.37-6.5,6.72s-6.18,2.04-10.93,2.04c-4.12,0-7.36-.58-9.73-1.74s-4.32-3.01-5.87-5.54-2.33-5.5-2.33-8.92c0-4.86,1.56-8.8,4.67-11.81s7.42-4.51,12.91-4.51c4.45,0,7.97.67,10.55,2.02s4.54,3.3,5.89,5.86,2.02,5.89,2.02,9.99v1.35ZM1090.18,485.69c-.23-2.3-.85-3.96-1.86-4.95s-2.33-1.49-3.97-1.49c-1.89,0-3.41.75-4.54,2.26-.72.94-1.18,2.33-1.38,4.19h11.75Z"/>
        <path class="cls-4" d="M1107.79,472.89h11.1v5.07c1.66-2.07,3.34-3.55,5.04-4.44s3.77-1.33,6.21-1.33c3.3,0,5.88.98,7.75,2.94s2.8,5,2.8,9.1v19.78h-11.98v-17.11c0-1.95-.36-3.33-1.08-4.15s-1.74-1.22-3.05-1.22c-1.45,0-2.62.55-3.52,1.64s-1.35,3.06-1.35,5.89v14.94h-11.92v-31.11Z"/>
        <path class="cls-4" d="M1162.19,461.05v11.84h6.56v8.73h-6.56v11.02c0,1.33.13,2.2.38,2.63.39.66,1.07.99,2.05.99.88,0,2.11-.25,3.69-.76l.88,8.23c-2.95.64-5.7.97-8.26.97-2.97,0-5.16-.38-6.56-1.14s-2.45-1.92-3.12-3.47-1.01-4.06-1.01-7.53v-10.94h-4.39v-8.73h4.39v-5.71l11.95-6.12Z"/>
      </g>
      <g>
        <path class="cls-4" d="M685.46,543.13h17.34v9.23h-17.34v-9.23Z"/>
        <path class="cls-4" d="M706.2,549.2l12.63-.79c.27,2.05.83,3.61,1.67,4.69,1.37,1.74,3.32,2.61,5.86,2.61,1.89,0,3.35-.44,4.38-1.33s1.54-1.92,1.54-3.09-.49-2.11-1.46-2.99-3.24-1.71-6.8-2.49c-5.82-1.31-9.97-3.05-12.45-5.21-2.5-2.17-3.75-4.93-3.75-8.29,0-2.21.64-4.29,1.92-6.25s3.2-3.51,5.77-4.63,6.09-1.68,10.56-1.68c5.49,0,9.67,1.02,12.55,3.06s4.59,5.29,5.14,9.74l-12.51.73c-.33-1.93-1.03-3.34-2.09-4.22s-2.53-1.32-4.41-1.32c-1.54,0-2.71.33-3.49.98s-1.17,1.45-1.17,2.39c0,.68.32,1.3.97,1.85.62.57,2.11,1.09,4.45,1.58,5.8,1.25,9.96,2.51,12.47,3.79s4.34,2.87,5.48,4.76,1.71,4.01,1.71,6.36c0,2.75-.76,5.29-2.29,7.62s-3.65,4.09-6.39,5.29-6.18,1.8-10.34,1.8c-7.3,0-12.36-1.41-15.18-4.22s-4.4-6.39-4.78-10.72Z"/>
        <path class="cls-4" d="M774.26,551.22l11.34,1.29c-.62,2.36-1.65,4.41-3.08,6.14s-3.25,3.07-5.46,4.03-5.03,1.44-8.45,1.44-6.05-.31-8.25-.92-4.09-1.61-5.67-2.99-2.82-2.99-3.72-4.84c-.9-1.85-1.35-4.31-1.35-7.38s.55-5.86,1.64-7.99c.8-1.56,1.89-2.96,3.28-4.2s2.81-2.16,4.28-2.77c2.32-.96,5.3-1.43,8.94-1.43,5.08,0,8.95.91,11.62,2.72s4.54,4.47,5.61,7.97l-11.22,1.49c-.35-1.33-.99-2.33-1.92-3s-2.17-1.01-3.74-1.01c-1.97,0-3.57.71-4.79,2.12-1.22,1.41-1.83,3.55-1.83,6.42,0,2.55.61,4.49,1.82,5.82,1.21,1.33,2.75,1.99,4.63,1.99,1.56,0,2.88-.4,3.94-1.2s1.86-2.03,2.39-3.69Z"/>
        <path class="cls-4" d="M790.05,520.46h11.92v15.82c1.62-1.68,3.23-2.88,4.83-3.6s3.5-1.08,5.68-1.08c3.24,0,5.8.99,7.66,2.96s2.8,5,2.8,9.08v19.78h-11.98v-17.11c0-1.95-.36-3.33-1.08-4.15s-1.74-1.22-3.05-1.22c-1.45,0-2.62.55-3.52,1.64s-1.35,3.06-1.35,5.89v14.94h-11.92v-42.95Z"/>
        <path class="cls-4" d="M840.94,542.37l-11.4-1.2c.43-1.99,1.05-3.56,1.86-4.7s1.98-2.13,3.5-2.97c1.09-.61,2.6-1.07,4.51-1.41s3.98-.5,6.21-.5c3.57,0,6.45.2,8.61.6s3.97,1.24,5.42,2.5c1.02.88,1.82,2.12,2.4,3.74s.88,3.15.88,4.61v13.74c0,1.46.09,2.61.28,3.44s.59,1.89,1.22,3.18h-11.19c-.45-.8-.74-1.41-.88-1.83s-.27-1.08-.41-1.98c-1.56,1.5-3.12,2.58-4.66,3.22-2.11.86-4.56,1.29-7.35,1.29-3.71,0-6.53-.86-8.45-2.58s-2.89-3.84-2.89-6.36c0-2.36.69-4.31,2.08-5.83s3.95-2.66,7.68-3.4c4.47-.9,7.37-1.53,8.7-1.89s2.73-.83,4.22-1.42c0-1.46-.3-2.49-.91-3.08s-1.67-.88-3.19-.88c-1.95,0-3.42.31-4.39.94-.76.49-1.38,1.41-1.85,2.75ZM851.28,548.64c-1.64.59-3.35,1.1-5.13,1.55-2.42.64-3.96,1.28-4.6,1.9-.66.64-1,1.38-1,2.2,0,.94.33,1.7.98,2.3s1.62.89,2.89.89,2.56-.32,3.71-.97,1.95-1.43,2.43-2.36.72-2.13.72-3.62v-1.9Z"/>
        <path class="cls-4" d="M893.29,551.22l11.34,1.29c-.62,2.36-1.65,4.41-3.08,6.14s-3.25,3.07-5.46,4.03-5.03,1.44-8.45,1.44-6.05-.31-8.25-.92-4.09-1.61-5.67-2.99-2.82-2.99-3.72-4.84c-.9-1.85-1.35-4.31-1.35-7.38s.55-5.86,1.64-7.99c.8-1.56,1.89-2.96,3.28-4.2s2.81-2.16,4.28-2.77c2.32-.96,5.3-1.43,8.94-1.43,5.08,0,8.95.91,11.62,2.72s4.54,4.47,5.61,7.97l-11.22,1.49c-.35-1.33-.99-2.33-1.92-3s-2.17-1.01-3.74-1.01c-1.97,0-3.57.71-4.79,2.12-1.22,1.41-1.83,3.55-1.83,6.42,0,2.55.61,4.49,1.82,5.82,1.21,1.33,2.75,1.99,4.63,1.99,1.56,0,2.88-.4,3.94-1.2s1.86-2.03,2.39-3.69Z"/>
        <path class="cls-4" d="M909.08,520.46h11.92v15.82c1.62-1.68,3.23-2.88,4.83-3.6s3.5-1.08,5.68-1.08c3.24,0,5.8.99,7.66,2.96s2.8,5,2.8,9.08v19.78h-11.98v-17.11c0-1.95-.36-3.33-1.08-4.15s-1.74-1.22-3.05-1.22c-1.45,0-2.62.55-3.52,1.64s-1.35,3.06-1.35,5.89v14.94h-11.92v-42.95Z"/>
        <path class="cls-4" d="M963.49,520.46v11.84h6.56v8.73h-6.56v11.02c0,1.33.13,2.2.38,2.63.39.66,1.07.99,2.05.99.88,0,2.11-.25,3.69-.76l.88,8.23c-2.95.64-5.7.97-8.26.97-2.97,0-5.16-.38-6.56-1.14s-2.45-1.92-3.12-3.47-1.01-4.06-1.01-7.53v-10.94h-4.39v-8.73h4.39v-5.71l11.95-6.12Z"/>
        <path class="cls-4" d="M1008.52,563.41h-11.13v-5.04c-1.66,2.07-3.33,3.54-5.02,4.42s-3.76,1.32-6.23,1.32c-3.28,0-5.85-.98-7.72-2.94s-2.8-4.99-2.8-9.07v-19.8h11.98v17.11c0,1.95.36,3.34,1.08,4.16s1.74,1.23,3.05,1.23c1.43,0,2.59-.55,3.5-1.64s1.36-3.06,1.36-5.89v-14.97h11.92v31.11Z"/>
        <path class="cls-4" d="M1015.87,532.29h11.16v5.1c1.07-2.21,2.18-3.73,3.33-4.56s2.55-1.25,4.23-1.25,3.68.55,5.77,1.64l-3.69,8.5c-1.41-.59-2.52-.88-3.34-.88-1.56,0-2.77.64-3.63,1.93-1.23,1.82-1.85,5.21-1.85,10.2v10.43h-11.98v-31.11Z"/>
        <path class="cls-4" d="M1045.37,532.29h11.1v5.07c1.66-2.07,3.34-3.55,5.04-4.44s3.77-1.33,6.21-1.33c3.3,0,5.88.98,7.75,2.94s2.8,5,2.8,9.1v19.78h-11.98v-17.11c0-1.95-.36-3.33-1.08-4.15s-1.74-1.22-3.05-1.22c-1.45,0-2.62.55-3.52,1.64s-1.35,3.06-1.35,5.89v14.94h-11.92v-31.11Z"/>
        <path class="cls-4" d="M1085.83,520.46h11.92v8.12h-11.92v-8.12ZM1085.83,532.29h11.92v31.11h-11.92v-31.11Z"/>
        <path class="cls-4" d="M1139.91,550.81h-23.91c.21,1.91.73,3.34,1.55,4.28,1.15,1.35,2.66,2.02,4.51,2.02,1.17,0,2.29-.29,3.34-.88.64-.37,1.34-1.03,2.08-1.96l11.75,1.08c-1.8,3.12-3.96,5.37-6.5,6.72s-6.18,2.04-10.93,2.04c-4.12,0-7.36-.58-9.73-1.74s-4.32-3.01-5.87-5.54-2.33-5.5-2.33-8.92c0-4.86,1.56-8.8,4.67-11.81s7.42-4.51,12.91-4.51c4.45,0,7.97.67,10.55,2.02s4.54,3.3,5.89,5.86,2.02,5.89,2.02,9.99v1.35ZM1127.78,545.1c-.23-2.3-.85-3.96-1.86-4.95s-2.33-1.49-3.97-1.49c-1.89,0-3.41.75-4.54,2.26-.72.94-1.18,2.33-1.38,4.19h11.75Z"/>
        <path class="cls-4" d="M1145.51,532.29h11.16v5.1c1.07-2.21,2.18-3.73,3.33-4.56s2.55-1.25,4.23-1.25,3.68.55,5.77,1.64l-3.69,8.5c-1.41-.59-2.52-.88-3.34-.88-1.56,0-2.77.64-3.63,1.93-1.23,1.82-1.85,5.21-1.85,10.2v10.43h-11.98v-31.11Z"/>
      </g>
    </g>
  </g>
</svg>